<svg xmlns="http://www.w3.org/2000/svg" viewBox="0 0 898.68 464.01"><defs><style>.cls-1{opacity:0.2;}</style></defs><title>Asset 5</title><g id="Layer_2" data-name="Layer 2"><g id="Layer_1-2" data-name="Layer 1" class="cls-1"><path d="M301.23,0a5,5,0,1,1-5,5,5,5,0,0,1,5-5"/><path d="M313.57,0a5,5,0,1,1-5,5,5,5,0,0,1,5-5"/><path d="M325.91,0a5,5,0,1,1-5,5,5,5,0,0,1,5-5"/><path d="M461.68,0a5,5,0,1,1-5,5,5,5,0,0,1,5-5"/><path d="M474,0a5,5,0,1,1-5,5,5,5,0,0,1,5-5"/><circle cx="202.48" cy="17.27" r="5"/><circle cx="214.83" cy="17.27" r="5"/><circle cx="227.17" cy="17.27" r="5"/><circle cx="239.51" cy="17.27" r="5"/><circle cx="251.86" cy="17.27" r="5"/><circle cx="264.2" cy="17.27" r="5"/><circle cx="276.54" cy="17.27" r="5"/><circle cx="288.88" cy="17.27" r="5"/><circle cx="301.23" cy="17.27" r="5"/><circle cx="313.57" cy="17.27" r="5"/><circle cx="325.91" cy="17.27" r="5"/><circle cx="437" cy="17.27" r="5"/><circle cx="449.34" cy="17.27" r="5"/><circle cx="461.68" cy="17.27" r="5"/><circle cx="474.03" cy="17.27" r="5"/><circle cx="190.14" cy="29.54" r="5"/><circle cx="202.48" cy="29.54" r="5"/><circle cx="227.17" cy="29.54" r="5"/><circle cx="239.51" cy="29.54" r="5"/><circle cx="264.2" cy="29.54" r="5"/><circle cx="276.54" cy="29.54" r="5"/><circle cx="288.88" cy="29.54" r="5"/><circle cx="301.23" cy="29.54" r="5"/><circle cx="313.57" cy="29.54" r="5"/><circle cx="325.91" cy="29.54" r="5"/><circle cx="338.25" cy="29.54" r="5"/><circle cx="350.6" cy="29.54" r="5"/><circle cx="449.34" cy="29.54" r="5"/><circle cx="560.42" cy="29.54" r="5"/><circle cx="572.77" cy="29.54" r="5"/><circle cx="585.11" cy="29.54" r="5"/><circle cx="671.51" cy="29.54" r="5"/><circle cx="683.85" cy="29.54" r="5"/><circle cx="696.2" cy="29.54" r="5"/><circle cx="128.43" cy="41.81" r="5"/><circle cx="140.77" cy="41.81" r="5"/><circle cx="153.11" cy="41.81" r="5"/><circle cx="165.46" cy="41.81" r="5"/><circle cx="177.8" cy="41.81" r="5"/><circle cx="190.14" cy="41.81" r="5"/><circle cx="202.48" cy="41.81" r="5"/><circle cx="214.83" cy="41.81" r="5"/><circle cx="227.17" cy="41.81" r="5"/><circle cx="276.54" cy="41.81" r="5"/><circle cx="288.88" cy="41.81" r="5"/><circle cx="301.23" cy="41.81" r="5"/><circle cx="313.57" cy="41.81" r="5"/><circle cx="325.91" cy="41.81" r="5"/><circle cx="338.25" cy="41.81" r="5"/><circle cx="350.6" cy="41.81" r="5"/><circle cx="548.08" cy="41.81" r="5"/><circle cx="560.42" cy="41.81" r="5"/><circle cx="634.48" cy="41.81" r="5"/><circle cx="646.82" cy="41.81" r="5"/><circle cx="659.17" cy="41.81" r="5"/><circle cx="671.51" cy="41.81" r="5"/><circle cx="683.85" cy="41.81" r="5"/><circle cx="696.2" cy="41.81" r="5"/><circle cx="140.77" cy="54.08" r="5"/><circle cx="153.11" cy="54.08" r="5"/><circle cx="165.46" cy="54.08" r="5"/><circle cx="177.8" cy="54.08" r="5"/><circle cx="202.48" cy="54.08" r="5"/><circle cx="214.83" cy="54.08" r="5"/><circle cx="227.17" cy="54.08" r="5"/><circle cx="288.88" cy="54.08" r="5"/><circle cx="301.23" cy="54.08" r="5"/><circle cx="313.57" cy="54.08" r="5"/><circle cx="325.91" cy="54.08" r="5"/><circle cx="338.25" cy="54.08" r="5"/><circle cx="350.6" cy="54.08" r="5"/><circle cx="548.08" cy="54.08" r="5"/><circle cx="585.11" cy="54.08" r="5"/><circle cx="597.45" cy="54.08" r="5"/><circle cx="609.8" cy="54.08" r="5"/><circle cx="622.14" cy="54.08" r="5"/><circle cx="634.48" cy="54.08" r="5"/><circle cx="646.82" cy="54.08" r="5"/><circle cx="659.17" cy="54.08" r="5"/><circle cx="671.51" cy="54.08" r="5"/><circle cx="683.85" cy="54.08" r="5"/><circle cx="696.2" cy="54.08" r="5"/><circle cx="708.54" cy="54.08" r="5"/><circle cx="720.88" cy="54.08" r="5"/><circle cx="733.22" cy="54.08" r="5"/><circle cx="770.25" cy="54.08" r="5"/><circle cx="782.59" cy="54.08" r="5"/><circle cx="794.94" cy="54.08" r="5"/><circle cx="116.08" cy="66.35" r="5"/><circle cx="128.43" cy="66.35" r="5"/><circle cx="140.77" cy="66.35" r="5"/><circle cx="153.11" cy="66.35" r="5"/><circle cx="177.8" cy="66.35" r="5"/><circle cx="190.14" cy="66.35" r="5"/><circle cx="202.48" cy="66.35" r="5"/><circle cx="214.83" cy="66.35" r="5"/><circle cx="288.88" cy="66.35" r="5"/><circle cx="301.23" cy="66.35" r="5"/><circle cx="313.57" cy="66.35" r="5"/><circle cx="325.91" cy="66.35" r="5"/><circle cx="338.25" cy="66.35" r="5"/><circle cx="350.6" cy="66.35" r="5"/><circle cx="461.68" cy="66.35" r="5"/><circle cx="474.03" cy="66.35" r="5"/><circle cx="486.37" cy="66.35" r="5"/><circle cx="498.71" cy="66.35" r="5"/><circle cx="511.05" cy="66.35" r="5"/><circle cx="523.4" cy="66.35" r="5"/><circle cx="535.74" cy="66.35" r="5"/><circle cx="548.08" cy="66.35" r="5"/><circle cx="560.42" cy="66.35" r="5"/><circle cx="572.77" cy="66.35" r="5"/><circle cx="585.11" cy="66.35" r="5"/><circle cx="597.45" cy="66.35" r="5"/><circle cx="609.8" cy="66.35" r="5"/><circle cx="622.14" cy="66.35" r="5"/><circle cx="634.48" cy="66.35" r="5"/><circle cx="646.82" cy="66.35" r="5"/><circle cx="659.17" cy="66.35" r="5"/><circle cx="671.51" cy="66.35" r="5"/><circle cx="683.85" cy="66.35" r="5"/><circle cx="696.2" cy="66.35" r="5"/><circle cx="708.54" cy="66.35" r="5"/><circle cx="720.88" cy="66.35" r="5"/><circle cx="733.22" cy="66.35" r="5"/><circle cx="745.57" cy="66.35" r="5"/><circle cx="757.91" cy="66.35" r="5"/><circle cx="770.25" cy="66.35" r="5"/><circle cx="782.59" cy="66.35" r="5"/><circle cx="794.94" cy="66.35" r="5"/><circle cx="807.28" cy="66.35" r="5"/><circle cx="819.62" cy="66.35" r="5"/><circle cx="831.97" cy="66.35" r="5"/><circle cx="844.31" cy="66.35" r="5"/><circle cx="856.65" cy="66.35" r="5"/><circle cx="868.99" cy="66.35" r="5"/><circle cx="17.34" cy="78.62" r="5"/><circle cx="29.69" cy="78.62" r="5"/><circle cx="42.03" cy="78.62" r="5"/><circle cx="54.37" cy="78.62" r="5"/><circle cx="140.77" cy="78.62" r="5"/><circle cx="153.11" cy="78.62" r="5"/><circle cx="165.46" cy="78.62" r="5"/><circle cx="190.14" cy="78.62" r="5"/><circle cx="202.48" cy="78.62" r="5"/><circle cx="214.83" cy="78.62" r="5"/><circle cx="227.17" cy="78.62" r="5"/><circle cx="239.51" cy="78.62" r="5"/><circle cx="251.86" cy="78.62" r="5"/><circle cx="288.88" cy="78.62" r="5"/><circle cx="301.23" cy="78.62" r="5"/><circle cx="313.57" cy="78.62" r="5"/><circle cx="325.91" cy="78.62" r="5"/><circle cx="338.25" cy="78.62" r="5"/><circle cx="362.94" cy="78.62" r="5"/><circle cx="449.34" cy="78.62" r="5"/><circle cx="461.68" cy="78.62" r="5"/><circle cx="474.03" cy="78.62" r="5"/><circle cx="486.37" cy="78.62" r="5"/><circle cx="498.71" cy="78.62" r="5"/><circle cx="511.05" cy="78.62" r="5"/><circle cx="523.4" cy="78.62" r="5"/><circle cx="535.74" cy="78.62" r="5"/><circle cx="548.08" cy="78.62" r="5"/><circle cx="560.42" cy="78.62" r="5"/><circle cx="572.77" cy="78.62" r="5"/><circle cx="585.11" cy="78.62" r="5"/><circle cx="597.45" cy="78.62" r="5"/><circle cx="609.8" cy="78.62" r="5"/><circle cx="622.14" cy="78.62" r="5"/><circle cx="634.48" cy="78.62" r="5"/><circle cx="646.82" cy="78.62" r="5"/><circle cx="659.17" cy="78.62" r="5"/><circle cx="671.51" cy="78.62" r="5"/><circle cx="683.85" cy="78.62" r="5"/><circle cx="696.2" cy="78.62" r="5"/><circle cx="708.54" cy="78.62" r="5"/><circle cx="720.88" cy="78.62" r="5"/><circle cx="733.22" cy="78.62" r="5"/><circle cx="745.57" cy="78.62" r="5"/><circle cx="757.91" cy="78.62" r="5"/><circle cx="770.25" cy="78.62" r="5"/><circle cx="782.59" cy="78.62" r="5"/><circle cx="794.94" cy="78.62" r="5"/><circle cx="807.28" cy="78.62" r="5"/><circle cx="819.62" cy="78.62" r="5"/><circle cx="831.97" cy="78.62" r="5"/><circle cx="844.31" cy="78.62" r="5"/><circle cx="856.65" cy="78.62" r="5"/><circle cx="868.99" cy="78.62" r="5"/><circle cx="881.34" cy="78.62" r="5"/><circle cx="5" cy="90.89" r="5"/><circle cx="17.34" cy="90.89" r="5"/><circle cx="29.69" cy="90.89" r="5"/><circle cx="42.03" cy="90.89" r="5"/><circle cx="54.37" cy="90.89" r="5"/><circle cx="66.71" cy="90.89" r="5"/><circle cx="79.06" cy="90.89" r="5"/><circle cx="91.4" cy="90.89" r="5"/><circle cx="103.74" cy="90.89" r="5"/><circle cx="116.08" cy="90.89" r="5"/><circle cx="128.43" cy="90.89" r="5"/><circle cx="140.77" cy="90.89" r="5"/><circle cx="153.11" cy="90.89" r="5"/><circle cx="165.46" cy="90.89" r="5"/><circle cx="177.8" cy="90.89" r="5"/><circle cx="190.14" cy="90.89" r="5"/><circle cx="214.83" cy="90.89" r="5"/><circle cx="239.51" cy="90.89" r="5"/><circle cx="251.86" cy="90.89" r="5"/><circle cx="264.2" cy="90.89" r="5"/><circle cx="288.88" cy="90.89" r="5"/><circle cx="301.23" cy="90.89" r="5"/><circle cx="313.57" cy="90.89" r="5"/><circle cx="350.6" cy="90.89" r="5"/><circle cx="362.94" cy="90.89" r="5"/><circle cx="437" cy="90.89" r="5"/><circle cx="449.34" cy="90.89" r="5"/><circle cx="474.03" cy="90.89" r="5"/><circle cx="486.37" cy="90.89" r="5"/><circle cx="498.71" cy="90.89" r="5"/><circle cx="511.05" cy="90.89" r="5"/><circle cx="523.4" cy="90.89" r="5"/><circle cx="535.74" cy="90.89" r="5"/><circle cx="548.08" cy="90.89" r="5"/><circle cx="560.42" cy="90.89" r="5"/><circle cx="572.77" cy="90.89" r="5"/><circle cx="585.11" cy="90.89" r="5"/><circle cx="597.45" cy="90.89" r="5"/><circle cx="609.8" cy="90.89" r="5"/><circle cx="622.14" cy="90.89" r="5"/><circle cx="634.48" cy="90.89" r="5"/><circle cx="646.82" cy="90.89" r="5"/><circle cx="659.17" cy="90.89" r="5"/><circle cx="671.51" cy="90.89" r="5"/><circle cx="683.85" cy="90.89" r="5"/><circle cx="696.2" cy="90.89" r="5"/><circle cx="708.54" cy="90.89" r="5"/><circle cx="720.88" cy="90.89" r="5"/><circle cx="733.22" cy="90.89" r="5"/><circle cx="745.57" cy="90.89" r="5"/><circle cx="757.91" cy="90.89" r="5"/><circle cx="770.25" cy="90.89" r="5"/><circle cx="782.59" cy="90.89" r="5"/><circle cx="794.94" cy="90.89" r="5"/><circle cx="807.28" cy="90.89" r="5"/><circle cx="819.62" cy="90.89" r="5"/><circle cx="831.97" cy="90.89" r="5"/><circle cx="844.31" cy="90.89" r="5"/><circle cx="856.65" cy="90.89" r="5"/><circle cx="868.99" cy="90.89" r="5"/><circle cx="17.34" cy="103.16" r="5"/><circle cx="29.69" cy="103.16" r="5"/><circle cx="42.03" cy="103.16" r="5"/><circle cx="54.37" cy="103.16" r="5"/><circle cx="66.71" cy="103.16" r="5"/><circle cx="79.06" cy="103.16" r="5"/><circle cx="91.4" cy="103.16" r="5"/><circle cx="103.74" cy="103.16" r="5"/><circle cx="116.08" cy="103.16" r="5"/><circle cx="128.43" cy="103.16" r="5"/><circle cx="140.77" cy="103.16" r="5"/><circle cx="153.11" cy="103.16" r="5"/><circle cx="165.46" cy="103.16" r="5"/><circle cx="177.8" cy="103.16" r="5"/><circle cx="190.14" cy="103.16" r="5"/><circle cx="202.48" cy="103.16" r="5"/><circle cx="214.83" cy="103.16" r="5"/><circle cx="239.51" cy="103.16" r="5"/><circle cx="251.86" cy="103.16" r="5"/><circle cx="301.23" cy="103.16" r="5"/><circle cx="313.57" cy="103.16" r="5"/><circle cx="325.91" cy="103.16" r="5"/><circle cx="424.65" cy="103.16" r="5"/><circle cx="437" cy="103.16" r="5"/><circle cx="449.34" cy="103.16" r="5"/><circle cx="474.03" cy="103.16" r="5"/><circle cx="486.37" cy="103.16" r="5"/><circle cx="498.71" cy="103.16" r="5"/><circle cx="511.05" cy="103.16" r="5"/><circle cx="523.4" cy="103.16" r="5"/><circle cx="535.74" cy="103.16" r="5"/><circle cx="548.08" cy="103.16" r="5"/><circle cx="560.42" cy="103.16" r="5"/><circle cx="572.77" cy="103.16" r="5"/><circle cx="585.11" cy="103.16" r="5"/><circle cx="597.45" cy="103.16" r="5"/><circle cx="609.8" cy="103.16" r="5"/><circle cx="622.14" cy="103.16" r="5"/><circle cx="634.48" cy="103.16" r="5"/><circle cx="646.82" cy="103.16" r="5"/><circle cx="659.17" cy="103.16" r="5"/><circle cx="671.51" cy="103.16" r="5"/><circle cx="683.85" cy="103.16" r="5"/><circle cx="696.2" cy="103.16" r="5"/><circle cx="708.54" cy="103.16" r="5"/><circle cx="720.88" cy="103.16" r="5"/><circle cx="733.22" cy="103.16" r="5"/><circle cx="745.57" cy="103.16" r="5"/><circle cx="757.91" cy="103.16" r="5"/><circle cx="770.25" cy="103.16" r="5"/><circle cx="782.59" cy="103.16" r="5"/><circle cx="794.94" cy="103.16" r="5"/><circle cx="807.28" cy="103.16" r="5"/><circle cx="819.62" cy="103.16" r="5"/><circle cx="831.97" cy="103.16" r="5"/><circle cx="844.31" cy="103.16" r="5"/><circle cx="5" cy="115.43" r="5"/><circle cx="17.34" cy="115.43" r="5"/><circle cx="29.69" cy="115.43" r="5"/><circle cx="42.03" cy="115.43" r="5"/><circle cx="54.37" cy="115.43" r="5"/><circle cx="66.71" cy="115.43" r="5"/><circle cx="79.06" cy="115.43" r="5"/><circle cx="91.4" cy="115.43" r="5"/><circle cx="103.74" cy="115.43" r="5"/><circle cx="116.08" cy="115.43" r="5"/><circle cx="128.43" cy="115.43" r="5"/><circle cx="140.77" cy="115.43" r="5"/><circle cx="153.11" cy="115.43" r="5"/><circle cx="165.46" cy="115.43" r="5"/><circle cx="177.8" cy="115.43" r="5"/><circle cx="190.14" cy="115.43" r="5"/><circle cx="239.51" cy="115.43" r="5"/><circle cx="251.86" cy="115.43" r="5"/><circle cx="264.2" cy="115.43" r="5"/><circle cx="399.97" cy="115.43" r="5"/><circle cx="437" cy="115.43" r="5"/><circle cx="474.03" cy="115.43" r="5"/><circle cx="486.37" cy="115.43" r="5"/><circle cx="498.71" cy="115.43" r="5"/><circle cx="511.05" cy="115.43" r="5"/><circle cx="523.4" cy="115.43" r="5"/><circle cx="535.74" cy="115.43" r="5"/><circle cx="548.08" cy="115.43" r="5"/><circle cx="560.42" cy="115.43" r="5"/><circle cx="572.77" cy="115.43" r="5"/><circle cx="585.11" cy="115.43" r="5"/><circle cx="597.45" cy="115.43" r="5"/><circle cx="609.8" cy="115.43" r="5"/><circle cx="622.14" cy="115.43" r="5"/><circle cx="634.48" cy="115.43" r="5"/><circle cx="646.82" cy="115.43" r="5"/><circle cx="659.17" cy="115.43" r="5"/><circle cx="671.51" cy="115.43" r="5"/><circle cx="683.85" cy="115.43" r="5"/><circle cx="696.2" cy="115.43" r="5"/><circle cx="708.54" cy="115.43" r="5"/><circle cx="720.88" cy="115.43" r="5"/><circle cx="733.22" cy="115.43" r="5"/><circle cx="745.57" cy="115.43" r="5"/><circle cx="757.91" cy="115.43" r="5"/><circle cx="819.62" cy="115.43" r="5"/><circle cx="17.34" cy="127.7" r="5"/><circle cx="29.69" cy="127.7" r="5"/><circle cx="91.4" cy="127.7" r="5"/><circle cx="103.74" cy="127.7" r="5"/><circle cx="116.08" cy="127.7" r="5"/><circle cx="128.43" cy="127.7" r="5"/><circle cx="140.77" cy="127.7" r="5"/><circle cx="153.11" cy="127.7" r="5"/><circle cx="165.46" cy="127.7" r="5"/><circle cx="177.8" cy="127.7" r="5"/><circle cx="239.51" cy="127.7" r="5"/><circle cx="251.86" cy="127.7" r="5"/><circle cx="264.2" cy="127.7" r="5"/><circle cx="387.63" cy="127.7" r="5"/><circle cx="399.97" cy="127.7" r="5"/><circle cx="412.31" cy="127.7" r="5"/><circle cx="424.65" cy="127.7" r="5"/><circle cx="437" cy="127.7" r="5"/><circle cx="449.34" cy="127.7" r="5"/><circle cx="461.68" cy="127.7" r="5"/><circle cx="474.03" cy="127.7" r="5"/><circle cx="486.37" cy="127.7" r="5"/><circle cx="498.71" cy="127.7" r="5"/><circle cx="511.05" cy="127.7" r="5"/><circle cx="523.4" cy="127.7" r="5"/><circle cx="535.74" cy="127.7" r="5"/><circle cx="548.08" cy="127.7" r="5"/><circle cx="560.42" cy="127.7" r="5"/><circle cx="572.77" cy="127.7" r="5"/><circle cx="585.11" cy="127.7" r="5"/><circle cx="597.45" cy="127.7" r="5"/><circle cx="609.8" cy="127.7" r="5"/><circle cx="622.14" cy="127.7" r="5"/><circle cx="634.48" cy="127.7" r="5"/><circle cx="646.82" cy="127.7" r="5"/><circle cx="659.17" cy="127.7" r="5"/><circle cx="671.51" cy="127.7" r="5"/><circle cx="683.85" cy="127.7" r="5"/><circle cx="696.2" cy="127.7" r="5"/><circle cx="708.54" cy="127.7" r="5"/><circle cx="720.88" cy="127.7" r="5"/><circle cx="733.22" cy="127.7" r="5"/><circle cx="745.57" cy="127.7" r="5"/><circle cx="757.91" cy="127.7" r="5"/><circle cx="819.62" cy="127.7" r="5"/><circle cx="17.34" cy="139.98" r="5"/><circle cx="91.4" cy="139.98" r="5"/><circle cx="103.74" cy="139.98" r="5"/><circle cx="116.08" cy="139.98" r="5"/><circle cx="128.43" cy="139.98" r="5"/><circle cx="140.77" cy="139.98" r="5"/><circle cx="153.11" cy="139.98" r="5"/><circle cx="165.46" cy="139.98" r="5"/><circle cx="177.8" cy="139.98" r="5"/><circle cx="190.14" cy="139.98" r="5"/><circle cx="202.48" cy="139.98" r="5"/><circle cx="214.83" cy="139.98" r="5"/><circle cx="239.51" cy="139.98" r="5"/><circle cx="251.86" cy="139.98" r="5"/><circle cx="264.2" cy="139.98" r="5"/><circle cx="276.54" cy="139.98" r="5"/><circle cx="412.31" cy="139.98" r="5"/><circle cx="424.65" cy="139.98" r="5"/><circle cx="437" cy="139.98" r="5"/><circle cx="449.34" cy="139.98" r="5"/><circle cx="461.68" cy="139.98" r="5"/><circle cx="474.03" cy="139.98" r="5"/><circle cx="486.37" cy="139.98" r="5"/><circle cx="498.71" cy="139.98" r="5"/><circle cx="511.05" cy="139.98" r="5"/><circle cx="523.4" cy="139.98" r="5"/><circle cx="535.74" cy="139.98" r="5"/><circle cx="548.08" cy="139.98" r="5"/><circle cx="560.42" cy="139.98" r="5"/><circle cx="572.77" cy="139.98" r="5"/><circle cx="585.11" cy="139.98" r="5"/><circle cx="597.45" cy="139.98" r="5"/><circle cx="609.8" cy="139.98" r="5"/><circle cx="622.14" cy="139.98" r="5"/><circle cx="634.48" cy="139.98" r="5"/><circle cx="646.82" cy="139.98" r="5"/><circle cx="659.17" cy="139.98" r="5"/><circle cx="671.51" cy="139.98" r="5"/><circle cx="683.85" cy="139.98" r="5"/><circle cx="696.2" cy="139.98" r="5"/><circle cx="708.54" cy="139.98" r="5"/><circle cx="720.88" cy="139.98" r="5"/><circle cx="733.22" cy="139.98" r="5"/><circle cx="745.57" cy="139.98" r="5"/><circle cx="757.91" cy="139.98" r="5"/><circle cx="782.59" cy="139.98" r="5"/><circle cx="91.4" cy="152.25" r="5"/><circle cx="103.74" cy="152.25" r="5"/><circle cx="116.08" cy="152.25" r="5"/><circle cx="128.43" cy="152.25" r="5"/><circle cx="140.77" cy="152.25" r="5"/><circle cx="153.11" cy="152.25" r="5"/><circle cx="165.46" cy="152.25" r="5"/><circle cx="177.8" cy="152.25" r="5"/><circle cx="190.14" cy="152.25" r="5"/><circle cx="202.48" cy="152.25" r="5"/><circle cx="214.83" cy="152.25" r="5"/><circle cx="227.17" cy="152.25" r="5"/><circle cx="239.51" cy="152.25" r="5"/><circle cx="251.86" cy="152.25" r="5"/><circle cx="264.2" cy="152.25" r="5"/><circle cx="276.54" cy="152.25" r="5"/><circle cx="288.88" cy="152.25" r="5"/><circle cx="412.31" cy="152.25" r="5"/><circle cx="424.65" cy="152.25" r="5"/><circle cx="437" cy="152.25" r="5"/><circle cx="449.34" cy="152.25" r="5"/><circle cx="461.68" cy="152.25" r="5"/><circle cx="474.03" cy="152.25" r="5"/><circle cx="486.37" cy="152.25" r="5"/><circle cx="498.71" cy="152.25" r="5"/><circle cx="511.05" cy="152.25" r="5"/><circle cx="523.4" cy="152.25" r="5"/><circle cx="535.74" cy="152.25" r="5"/><circle cx="548.08" cy="152.25" r="5"/><circle cx="560.42" cy="152.25" r="5"/><circle cx="572.77" cy="152.25" r="5"/><circle cx="585.11" cy="152.25" r="5"/><circle cx="597.45" cy="152.25" r="5"/><circle cx="609.8" cy="152.25" r="5"/><circle cx="622.14" cy="152.25" r="5"/><circle cx="634.48" cy="152.25" r="5"/><circle cx="646.82" cy="152.25" r="5"/><circle cx="659.17" cy="152.25" r="5"/><circle cx="671.51" cy="152.25" r="5"/><circle cx="683.85" cy="152.25" r="5"/><circle cx="696.2" cy="152.25" r="5"/><circle cx="708.54" cy="152.25" r="5"/><circle cx="720.88" cy="152.25" r="5"/><circle cx="733.22" cy="152.25" r="5"/><circle cx="745.57" cy="152.25" r="5"/><circle cx="757.91" cy="152.25" r="5"/><circle cx="782.59" cy="152.25" r="5"/><circle cx="116.08" cy="164.52" r="5"/><circle cx="128.43" cy="164.52" r="5"/><circle cx="140.77" cy="164.52" r="5"/><circle cx="153.11" cy="164.52" r="5"/><circle cx="165.46" cy="164.52" r="5"/><circle cx="177.8" cy="164.52" r="5"/><circle cx="190.14" cy="164.52" r="5"/><circle cx="202.48" cy="164.52" r="5"/><circle cx="214.83" cy="164.52" r="5"/><circle cx="227.17" cy="164.52" r="5"/><circle cx="239.51" cy="164.52" r="5"/><circle cx="251.86" cy="164.52" r="5"/><circle cx="288.88" cy="164.52" r="5"/><circle cx="387.63" cy="164.52" r="5"/><circle cx="399.97" cy="164.52" r="5"/><circle cx="412.31" cy="164.52" r="5"/><circle cx="437" cy="164.52" r="5"/><circle cx="449.34" cy="164.52" r="5"/><circle cx="461.68" cy="164.52" r="5"/><circle cx="474.03" cy="164.52" r="5"/><circle cx="486.37" cy="164.52" r="5"/><circle cx="498.71" cy="164.52" r="5"/><circle cx="511.05" cy="164.52" r="5"/><circle cx="523.4" cy="164.52" r="5"/><circle cx="535.74" cy="164.52" r="5"/><circle cx="548.08" cy="164.52" r="5"/><circle cx="560.42" cy="164.52" r="5"/><circle cx="572.77" cy="164.52" r="5"/><circle cx="585.11" cy="164.52" r="5"/><circle cx="597.45" cy="164.52" r="5"/><circle cx="609.8" cy="164.52" r="5"/><circle cx="622.14" cy="164.52" r="5"/><circle cx="634.48" cy="164.52" r="5"/><circle cx="646.82" cy="164.52" r="5"/><circle cx="659.17" cy="164.52" r="5"/><circle cx="671.51" cy="164.52" r="5"/><circle cx="683.85" cy="164.52" r="5"/><circle cx="696.2" cy="164.52" r="5"/><circle cx="708.54" cy="164.52" r="5"/><circle cx="720.88" cy="164.52" r="5"/><circle cx="733.22" cy="164.52" r="5"/><circle cx="745.57" cy="164.52" r="5"/><circle cx="770.25" cy="164.52" r="5"/><circle cx="782.59" cy="164.52" r="5"/><circle cx="116.08" cy="176.79" r="5"/><circle cx="128.43" cy="176.79" r="5"/><circle cx="140.77" cy="176.79" r="5"/><circle cx="153.11" cy="176.79" r="5"/><circle cx="165.46" cy="176.79" r="5"/><circle cx="177.8" cy="176.79" r="5"/><circle cx="190.14" cy="176.79" r="5"/><circle cx="202.48" cy="176.79" r="5"/><circle cx="214.83" cy="176.79" r="5"/><circle cx="227.17" cy="176.79" r="5"/><circle cx="239.51" cy="176.79" r="5"/><circle cx="251.86" cy="176.79" r="5"/><circle cx="264.2" cy="176.79" r="5"/><circle cx="276.54" cy="176.79" r="5"/><circle cx="387.63" cy="176.79" r="5"/><circle cx="399.97" cy="176.79" r="5"/><circle cx="449.34" cy="176.79" r="5"/><circle cx="486.37" cy="176.79" r="5"/><circle cx="498.71" cy="176.79" r="5"/><circle cx="511.05" cy="176.79" r="5"/><circle cx="523.4" cy="176.79" r="5"/><circle cx="535.74" cy="176.79" r="5"/><circle cx="548.08" cy="176.79" r="5"/><circle cx="560.42" cy="176.79" r="5"/><circle cx="572.77" cy="176.79" r="5"/><circle cx="585.11" cy="176.79" r="5"/><circle cx="597.45" cy="176.79" r="5"/><circle cx="609.8" cy="176.79" r="5"/><circle cx="622.14" cy="176.79" r="5"/><circle cx="634.48" cy="176.79" r="5"/><circle cx="646.82" cy="176.79" r="5"/><circle cx="659.17" cy="176.79" r="5"/><circle cx="671.51" cy="176.79" r="5"/><circle cx="683.85" cy="176.79" r="5"/><circle cx="696.2" cy="176.79" r="5"/><circle cx="708.54" cy="176.79" r="5"/><circle cx="720.88" cy="176.79" r="5"/><circle cx="733.22" cy="176.79" r="5"/><circle cx="770.25" cy="176.79" r="5"/><circle cx="116.08" cy="189.06" r="5"/><circle cx="128.43" cy="189.06" r="5"/><circle cx="140.77" cy="189.06" r="5"/><circle cx="153.11" cy="189.06" r="5"/><circle cx="165.46" cy="189.06" r="5"/><circle cx="177.8" cy="189.06" r="5"/><circle cx="190.14" cy="189.06" r="5"/><circle cx="202.48" cy="189.06" r="5"/><circle cx="214.83" cy="189.06" r="5"/><circle cx="227.17" cy="189.06" r="5"/><circle cx="239.51" cy="189.06" r="5"/><circle cx="399.97" cy="189.06" r="5"/><circle cx="412.31" cy="189.06" r="5"/><circle cx="424.65" cy="189.06" r="5"/><circle cx="437" cy="189.06" r="5"/><circle cx="511.05" cy="189.06" r="5"/><circle cx="523.4" cy="189.06" r="5"/><circle cx="535.74" cy="189.06" r="5"/><circle cx="548.08" cy="189.06" r="5"/><circle cx="560.42" cy="189.06" r="5"/><circle cx="572.77" cy="189.06" r="5"/><circle cx="585.11" cy="189.06" r="5"/><circle cx="597.45" cy="189.06" r="5"/><circle cx="609.8" cy="189.06" r="5"/><circle cx="622.14" cy="189.06" r="5"/><circle cx="634.48" cy="189.06" r="5"/><circle cx="646.82" cy="189.06" r="5"/><circle cx="659.17" cy="189.06" r="5"/><circle cx="671.51" cy="189.06" r="5"/><circle cx="683.85" cy="189.06" r="5"/><circle cx="696.2" cy="189.06" r="5"/><circle cx="708.54" cy="189.06" r="5"/><circle cx="720.88" cy="189.06" r="5"/><circle cx="733.22" cy="189.06" r="5"/><circle cx="745.57" cy="189.06" r="5"/><circle cx="757.91" cy="189.06" r="5"/><circle cx="770.25" cy="189.06" r="5"/><circle cx="116.08" cy="201.33" r="5"/><circle cx="128.43" cy="201.33" r="5"/><circle cx="140.77" cy="201.33" r="5"/><circle cx="153.11" cy="201.33" r="5"/><circle cx="165.46" cy="201.33" r="5"/><circle cx="177.8" cy="201.33" r="5"/><circle cx="190.14" cy="201.33" r="5"/><circle cx="202.48" cy="201.33" r="5"/><circle cx="214.83" cy="201.33" r="5"/><circle cx="227.17" cy="201.33" r="5"/><circle cx="387.63" cy="201.33" r="5"/><circle cx="399.97" cy="201.33" r="5"/><circle cx="412.31" cy="201.33" r="5"/><circle cx="424.65" cy="201.33" r="5"/><circle cx="437" cy="201.33" r="5"/><circle cx="449.34" cy="201.33" r="5"/><circle cx="461.68" cy="201.33" r="5"/><circle cx="474.03" cy="201.33" r="5"/><circle cx="486.37" cy="201.33" r="5"/><circle cx="498.71" cy="201.33" r="5"/><circle cx="511.05" cy="201.33" r="5"/><circle cx="523.4" cy="201.33" r="5"/><circle cx="548.08" cy="201.33" r="5"/><circle cx="560.42" cy="201.33" r="5"/><circle cx="572.77" cy="201.33" r="5"/><circle cx="585.11" cy="201.33" r="5"/><circle cx="597.45" cy="201.33" r="5"/><circle cx="609.8" cy="201.33" r="5"/><circle cx="622.14" cy="201.33" r="5"/><circle cx="634.48" cy="201.33" r="5"/><circle cx="646.82" cy="201.33" r="5"/><circle cx="659.17" cy="201.33" r="5"/><circle cx="671.51" cy="201.33" r="5"/><circle cx="683.85" cy="201.33" r="5"/><circle cx="696.2" cy="201.33" r="5"/><circle cx="708.54" cy="201.33" r="5"/><circle cx="720.88" cy="201.33" r="5"/><circle cx="745.57" cy="201.33" r="5"/><circle cx="140.77" cy="213.6" r="5"/><circle cx="153.11" cy="213.6" r="5"/><circle cx="165.46" cy="213.6" r="5"/><circle cx="177.8" cy="213.6" r="5"/><circle cx="190.14" cy="213.6" r="5"/><circle cx="202.48" cy="213.6" r="5"/><circle cx="214.83" cy="213.6" r="5"/><circle cx="227.17" cy="213.6" r="5"/><circle cx="375.28" cy="213.6" r="5"/><circle cx="387.63" cy="213.6" r="5"/><circle cx="399.97" cy="213.6" r="5"/><circle cx="412.31" cy="213.6" r="5"/><circle cx="424.65" cy="213.6" r="5"/><circle cx="437" cy="213.6" r="5"/><circle cx="449.34" cy="213.6" r="5"/><circle cx="461.68" cy="213.6" r="5"/><circle cx="474.03" cy="213.6" r="5"/><circle cx="486.37" cy="213.6" r="5"/><circle cx="511.05" cy="213.6" r="5"/><circle cx="523.4" cy="213.6" r="5"/><circle cx="535.74" cy="213.6" r="5"/><circle cx="560.42" cy="213.6" r="5"/><circle cx="572.77" cy="213.6" r="5"/><circle cx="585.11" cy="213.6" r="5"/><circle cx="597.45" cy="213.6" r="5"/><circle cx="609.8" cy="213.6" r="5"/><circle cx="622.14" cy="213.6" r="5"/><circle cx="634.48" cy="213.6" r="5"/><circle cx="646.82" cy="213.6" r="5"/><circle cx="659.17" cy="213.6" r="5"/><circle cx="671.51" cy="213.6" r="5"/><circle cx="683.85" cy="213.6" r="5"/><circle cx="696.2" cy="213.6" r="5"/><circle cx="708.54" cy="213.6" r="5"/><circle cx="720.88" cy="213.6" r="5"/><circle cx="140.77" cy="225.87" r="5"/><circle cx="153.11" cy="225.87" r="5"/><circle cx="165.46" cy="225.87" r="5"/><circle cx="177.8" cy="225.87" r="5"/><circle cx="375.28" cy="225.87" r="5"/><circle cx="387.63" cy="225.87" r="5"/><circle cx="399.97" cy="225.87" r="5"/><circle cx="412.31" cy="225.87" r="5"/><circle cx="424.65" cy="225.87" r="5"/><circle cx="437" cy="225.87" r="5"/><circle cx="449.34" cy="225.87" r="5"/><circle cx="461.68" cy="225.87" r="5"/><circle cx="474.03" cy="225.87" r="5"/><circle cx="486.37" cy="225.87" r="5"/><circle cx="498.71" cy="225.87" r="5"/><circle cx="523.4" cy="225.87" r="5"/><circle cx="535.74" cy="225.87" r="5"/><circle cx="548.08" cy="225.87" r="5"/><circle cx="560.42" cy="225.87" r="5"/><circle cx="597.45" cy="225.87" r="5"/><circle cx="609.8" cy="225.87" r="5"/><circle cx="622.14" cy="225.87" r="5"/><circle cx="634.48" cy="225.87" r="5"/><circle cx="646.82" cy="225.87" r="5"/><circle cx="659.17" cy="225.87" r="5"/><circle cx="671.51" cy="225.87" r="5"/><circle cx="683.85" cy="225.87" r="5"/><circle cx="696.2" cy="225.87" r="5"/><circle cx="720.88" cy="225.87" r="5"/><circle cx="153.11" cy="238.14" r="5"/><circle cx="165.46" cy="238.14" r="5"/><circle cx="177.8" cy="238.14" r="5"/><circle cx="219.8" cy="225.85" r="5"/><circle cx="375.28" cy="238.14" r="5"/><circle cx="387.63" cy="238.14" r="5"/><circle cx="399.97" cy="238.14" r="5"/><circle cx="412.31" cy="238.14" r="5"/><circle cx="424.65" cy="238.14" r="5"/><circle cx="437" cy="238.14" r="5"/><circle cx="449.34" cy="238.14" r="5"/><circle cx="461.68" cy="238.14" r="5"/><circle cx="474.03" cy="238.14" r="5"/><circle cx="486.37" cy="238.14" r="5"/><circle cx="498.71" cy="238.14" r="5"/><circle cx="511.05" cy="238.14" r="5"/><circle cx="523.4" cy="238.14" r="5"/><circle cx="535.74" cy="238.14" r="5"/><circle cx="548.08" cy="238.14" r="5"/><circle cx="597.45" cy="238.14" r="5"/><circle cx="609.8" cy="238.14" r="5"/><circle cx="659.17" cy="238.14" r="5"/><circle cx="671.51" cy="238.14" r="5"/><circle cx="683.85" cy="238.14" r="5"/><circle cx="720.88" cy="238.14" r="5"/><circle cx="165.46" cy="250.41" r="5"/><circle cx="177.8" cy="250.41" r="5"/><circle cx="190.14" cy="250.41" r="5"/><circle cx="202.48" cy="250.41" r="5"/><circle cx="239.51" cy="250.41" r="5"/><circle cx="251.86" cy="250.41" r="5"/><circle cx="264.2" cy="250.41" r="5"/><circle cx="375.28" cy="250.41" r="5"/><circle cx="387.63" cy="250.41" r="5"/><circle cx="399.97" cy="250.41" r="5"/><circle cx="412.31" cy="250.41" r="5"/><circle cx="424.65" cy="250.41" r="5"/><circle cx="437" cy="250.41" r="5"/><circle cx="449.34" cy="250.41" r="5"/><circle cx="461.68" cy="250.41" r="5"/><circle cx="474.03" cy="250.41" r="5"/><circle cx="486.37" cy="250.41" r="5"/><circle cx="498.71" cy="250.41" r="5"/><circle cx="511.05" cy="250.41" r="5"/><circle cx="523.4" cy="250.41" r="5"/><circle cx="535.74" cy="250.41" r="5"/><circle cx="609.8" cy="250.41" r="5"/><circle cx="671.51" cy="250.41" r="5"/><circle cx="683.85" cy="250.41" r="5"/><circle cx="720.88" cy="250.41" r="5"/><circle cx="202.48" cy="262.68" r="5"/><circle cx="214.83" cy="262.68" r="5"/><circle cx="387.63" cy="262.68" r="5"/><circle cx="399.97" cy="262.68" r="5"/><circle cx="412.31" cy="262.68" r="5"/><circle cx="424.65" cy="262.68" r="5"/><circle cx="437" cy="262.68" r="5"/><circle cx="449.34" cy="262.68" r="5"/><circle cx="461.68" cy="262.68" r="5"/><circle cx="474.03" cy="262.68" r="5"/><circle cx="486.37" cy="262.68" r="5"/><circle cx="498.71" cy="262.68" r="5"/><circle cx="511.05" cy="262.68" r="5"/><circle cx="523.4" cy="262.68" r="5"/><circle cx="535.74" cy="262.68" r="5"/><circle cx="609.8" cy="262.68" r="5"/><circle cx="671.51" cy="262.68" r="5"/><circle cx="708.54" cy="262.68" r="5"/><circle cx="733.22" cy="262.68" r="5"/><circle cx="214.83" cy="274.95" r="5"/><circle cx="227.17" cy="274.95" r="5"/><circle cx="437" cy="274.95" r="5"/><circle cx="449.34" cy="274.95" r="5"/><circle cx="461.68" cy="274.95" r="5"/><circle cx="474.03" cy="274.95" r="5"/><circle cx="486.37" cy="274.95" r="5"/><circle cx="498.71" cy="274.95" r="5"/><circle cx="511.05" cy="274.95" r="5"/><circle cx="523.4" cy="274.95" r="5"/><circle cx="671.51" cy="274.95" r="5"/><circle cx="696.2" cy="274.95" r="5"/><circle cx="708.54" cy="274.95" r="5"/><circle cx="227.17" cy="287.22" r="5"/><circle cx="239.51" cy="287.22" r="5"/><circle cx="251.86" cy="287.22" r="5"/><circle cx="264.2" cy="287.22" r="5"/><circle cx="437" cy="287.22" r="5"/><circle cx="449.34" cy="287.22" r="5"/><circle cx="461.68" cy="287.22" r="5"/><circle cx="474.03" cy="287.22" r="5"/><circle cx="486.37" cy="287.22" r="5"/><circle cx="498.71" cy="287.22" r="5"/><circle cx="511.05" cy="287.22" r="5"/><circle cx="683.85" cy="287.22" r="5"/><circle cx="696.2" cy="287.22" r="5"/><circle cx="227.17" cy="299.49" r="5"/><circle cx="239.51" cy="299.49" r="5"/><circle cx="251.86" cy="299.49" r="5"/><circle cx="264.2" cy="299.49" r="5"/><circle cx="276.54" cy="299.49" r="5"/><circle cx="449.34" cy="299.49" r="5"/><circle cx="461.68" cy="299.49" r="5"/><circle cx="474.03" cy="299.49" r="5"/><circle cx="486.37" cy="299.49" r="5"/><circle cx="498.71" cy="299.49" r="5"/><circle cx="511.05" cy="299.49" r="5"/><circle cx="696.2" cy="299.49" r="5"/><circle cx="708.54" cy="299.49" r="5"/><circle cx="720.88" cy="299.49" r="5"/><circle cx="733.22" cy="299.49" r="5"/><circle cx="745.57" cy="299.49" r="5"/><circle cx="757.91" cy="299.49" r="5"/><circle cx="782.59" cy="299.49" r="5"/><circle cx="214.83" cy="311.76" r="5"/><circle cx="227.17" cy="311.76" r="5"/><circle cx="239.51" cy="311.76" r="5"/><circle cx="251.86" cy="311.76" r="5"/><circle cx="264.2" cy="311.76" r="5"/><circle cx="276.54" cy="311.76" r="5"/><circle cx="288.88" cy="311.76" r="5"/><circle cx="449.34" cy="311.76" r="5"/><circle cx="461.68" cy="311.76" r="5"/><circle cx="474.03" cy="311.76" r="5"/><circle cx="486.37" cy="311.76" r="5"/><circle cx="498.71" cy="311.76" r="5"/><circle cx="511.05" cy="311.76" r="5"/><circle cx="535.74" cy="311.76" r="5"/><circle cx="708.54" cy="311.76" r="5"/><circle cx="720.88" cy="311.76" r="5"/><circle cx="745.57" cy="311.76" r="5"/><circle cx="757.91" cy="311.76" r="5"/><circle cx="782.59" cy="311.76" r="5"/><circle cx="794.94" cy="311.76" r="5"/><circle cx="807.28" cy="311.76" r="5"/><circle cx="819.62" cy="311.76" r="5"/><circle cx="831.97" cy="311.76" r="5"/><circle cx="214.83" cy="324.03" r="5"/><circle cx="227.17" cy="324.03" r="5"/><circle cx="239.51" cy="324.03" r="5"/><circle cx="251.86" cy="324.03" r="5"/><circle cx="264.2" cy="324.03" r="5"/><circle cx="276.54" cy="324.03" r="5"/><circle cx="288.88" cy="324.03" r="5"/><circle cx="301.23" cy="324.03" r="5"/><circle cx="313.57" cy="324.03" r="5"/><circle cx="325.91" cy="324.03" r="5"/><circle cx="449.34" cy="324.03" r="5"/><circle cx="461.68" cy="324.03" r="5"/><circle cx="474.03" cy="324.03" r="5"/><circle cx="486.37" cy="324.03" r="5"/><circle cx="498.71" cy="324.03" r="5"/><circle cx="511.05" cy="324.03" r="5"/><circle cx="523.4" cy="324.03" r="5"/><circle cx="535.74" cy="324.03" r="5"/><circle cx="733.22" cy="324.03" r="5"/><circle cx="745.57" cy="324.03" r="5"/><circle cx="757.91" cy="324.03" r="5"/><circle cx="770.25" cy="324.03" r="5"/><circle cx="807.28" cy="324.03" r="5"/><circle cx="819.62" cy="324.03" r="5"/><circle cx="831.97" cy="324.03" r="5"/><circle cx="227.17" cy="336.3" r="5"/><circle cx="239.51" cy="336.3" r="5"/><circle cx="251.86" cy="336.3" r="5"/><circle cx="264.2" cy="336.3" r="5"/><circle cx="276.54" cy="336.3" r="5"/><circle cx="288.88" cy="336.3" r="5"/><circle cx="301.23" cy="336.3" r="5"/><circle cx="313.57" cy="336.3" r="5"/><circle cx="325.91" cy="336.3" r="5"/><circle cx="449.34" cy="336.3" r="5"/><circle cx="461.68" cy="336.3" r="5"/><circle cx="474.03" cy="336.3" r="5"/><circle cx="486.37" cy="336.3" r="5"/><circle cx="498.71" cy="336.3" r="5"/><circle cx="523.4" cy="336.3" r="5"/><circle cx="535.74" cy="336.3" r="5"/><circle cx="770.25" cy="336.3" r="5"/><circle cx="782.59" cy="336.3" r="5"/><circle cx="807.28" cy="336.3" r="5"/><circle cx="227.17" cy="348.57" r="5"/><circle cx="239.51" cy="348.57" r="5"/><circle cx="251.86" cy="348.57" r="5"/><circle cx="264.2" cy="348.57" r="5"/><circle cx="276.54" cy="348.57" r="5"/><circle cx="288.88" cy="348.57" r="5"/><circle cx="301.23" cy="348.57" r="5"/><circle cx="313.57" cy="348.57" r="5"/><circle cx="449.34" cy="348.57" r="5"/><circle cx="461.68" cy="348.57" r="5"/><circle cx="474.03" cy="348.57" r="5"/><circle cx="486.37" cy="348.57" r="5"/><circle cx="523.4" cy="348.57" r="5"/><circle cx="757.91" cy="348.57" r="5"/><circle cx="770.25" cy="348.57" r="5"/><circle cx="782.59" cy="348.57" r="5"/><circle cx="794.94" cy="348.57" r="5"/><circle cx="807.28" cy="348.57" r="5"/><circle cx="819.62" cy="348.57" r="5"/><circle cx="239.51" cy="360.84" r="5"/><circle cx="251.86" cy="360.84" r="5"/><circle cx="264.2" cy="360.84" r="5"/><circle cx="276.54" cy="360.84" r="5"/><circle cx="288.88" cy="360.84" r="5"/><circle cx="301.23" cy="360.84" r="5"/><circle cx="313.57" cy="360.84" r="5"/><circle cx="461.68" cy="360.84" r="5"/><circle cx="474.03" cy="360.84" r="5"/><circle cx="486.37" cy="360.84" r="5"/><circle cx="733.22" cy="360.84" r="5"/><circle cx="745.57" cy="360.84" r="5"/><circle cx="757.91" cy="360.84" r="5"/><circle cx="770.25" cy="360.84" r="5"/><circle cx="782.59" cy="360.84" r="5"/><circle cx="794.94" cy="360.84" r="5"/><circle cx="807.28" cy="360.84" r="5"/><circle cx="819.62" cy="360.84" r="5"/><circle cx="239.51" cy="373.12" r="5"/><circle cx="251.86" cy="373.12" r="5"/><circle cx="264.2" cy="373.12" r="5"/><circle cx="276.54" cy="373.12" r="5"/><circle cx="288.88" cy="373.12" r="5"/><circle cx="301.23" cy="373.12" r="5"/><circle cx="461.68" cy="373.12" r="5"/><circle cx="474.03" cy="373.12" r="5"/><circle cx="733.22" cy="373.12" r="5"/><circle cx="745.57" cy="373.12" r="5"/><circle cx="757.91" cy="373.12" r="5"/><circle cx="770.25" cy="373.12" r="5"/><circle cx="782.59" cy="373.12" r="5"/><circle cx="794.94" cy="373.12" r="5"/><circle cx="807.28" cy="373.12" r="5"/><circle cx="819.62" cy="373.12" r="5"/><circle cx="831.97" cy="373.12" r="5"/><circle cx="239.51" cy="385.39" r="5"/><circle cx="251.86" cy="385.39" r="5"/><circle cx="264.2" cy="385.39" r="5"/><circle cx="276.54" cy="385.39" r="5"/><circle cx="288.88" cy="385.39" r="5"/><circle cx="745.57" cy="385.39" r="5"/><circle cx="757.91" cy="385.39" r="5"/><circle cx="770.25" cy="385.39" r="5"/><circle cx="782.59" cy="385.39" r="5"/><circle cx="794.94" cy="385.39" r="5"/><circle cx="807.28" cy="385.39" r="5"/><circle cx="819.62" cy="385.39" r="5"/><circle cx="831.97" cy="385.39" r="5"/><circle cx="239.51" cy="397.66" r="5"/><circle cx="251.86" cy="397.66" r="5"/><circle cx="264.2" cy="397.66" r="5"/><circle cx="276.54" cy="397.66" r="5"/><circle cx="807.28" cy="397.66" r="5"/><circle cx="819.62" cy="397.66" r="5"/><circle cx="893.68" cy="397.66" r="5"/><circle cx="239.51" cy="409.93" r="5"/><circle cx="251.86" cy="409.93" r="5"/><circle cx="264.2" cy="409.93" r="5"/><circle cx="819.62" cy="409.93" r="5"/><circle cx="881.34" cy="409.93" r="5"/><circle cx="893.68" cy="409.93" r="5"/><circle cx="239.51" cy="422.2" r="5"/><circle cx="251.86" cy="422.2" r="5"/><circle cx="819.62" cy="422.2" r="5"/><circle cx="868.99" cy="422.2" r="5"/><circle cx="881.34" cy="422.2" r="5"/><circle cx="239.51" cy="434.47" r="5"/><circle cx="227.17" cy="446.74" r="5"/><circle cx="239.51" cy="446.74" r="5"/><circle cx="239.51" cy="459.01" r="5"/></g></g></svg>